<svg width="60" height="72" viewBox="0 0 60 72" fill="none" xmlns="http://www.w3.org/2000/svg">
<path fill-rule="evenodd" clip-rule="evenodd" d="M59.8401 13.0224C59.8401 14.8305 59.8401 16.6386 59.9253 18.5327C59.9348 19.0372 59.9443 19.5467 59.9533 20.0608C50.4564 17.634 36.152 18.4715 29.9732 22.5731C27.7272 24.0666 25.7607 28.0237 24.237 32.051H18.0953C17.6073 32.051 17.1484 32.2727 16.843 32.6526C16.536 33.0309 16.4132 33.5314 16.5134 34.0124L17.4231 38.4603C17.5782 39.2185 18.2407 39.7598 19.005 39.7598H20.8244C19.068 41.8044 18.2164 44.3789 18.2051 46.955C18.1938 50.1377 19.3911 53.0139 21.5806 55.0487C21.5917 55.0584 21.6028 55.0667 21.6137 55.0749C21.6267 55.0847 21.6394 55.0942 21.6517 55.1057V61.3292C21.6517 62.6776 22.7375 63.7749 24.0754 63.7749H29.7405C31.0784 63.7749 32.1642 62.6776 32.1642 61.3292V58.8281H50.6288C46.2959 64.1033 39.9953 68.6362 30.8542 71.8278L30.0017 72L29.1491 71.8278C5.01974 63.4271 0.680048 45.6772 0.0829333 29.6382H14.8141L17.3117 25.0978H0.000279871C-0.000853602 24.4766 0.00151154 23.8598 0.00636419 23.248H19.9759L22.4735 18.7077H0.0747026L0.0765173 18.6115L0.0780023 18.5327C0.163255 16.6386 0.163255 14.8305 0.163255 13.0224C0.163255 11.5587 1.27154 10.4395 2.72083 10.4395C13.3774 10.4395 21.4764 7.33991 28.2114 0.710314C29.2344 -0.236771 30.7689 -0.236771 31.792 0.710314C38.5269 7.33991 46.6259 10.4395 57.2825 10.4395C58.7318 10.4395 59.8401 11.5587 59.8401 13.0224ZM60 25.1162C59.9919 28.2043 59.8964 31.3966 59.5913 34.6092H28.4721C29.8859 30.6716 31.4323 27.4563 32.6344 26.6574C37.9169 23.1489 52.11 22.6351 60 25.1162ZM30.1541 42.7582C27.522 42.7582 25.3859 44.9104 25.3859 47.5681C25.3859 50.2258 27.522 52.3796 30.1541 52.3796C32.7896 52.3796 34.9224 50.2258 34.9224 47.5681C34.9224 44.9104 32.7896 42.7582 30.1541 42.7582Z" fill="#4EADFF"/>
</svg>
